<mxfile host="app.diagrams.net" modified="2024-05-06T11:27:13.817Z" agent="Mozilla/5.0 (Windows NT 10.0; Win64; x64) AppleWebKit/537.36 (KHTML, like Gecko) Chrome/124.0.0.0 Safari/537.36" version="24.3.1" etag="c6xNYslpxX49u590qY_D" type="github">
  <diagram name="Page-1" id="vsjWc-Hx6m0IOyQLagn_">
    <mxGraphModel>
      <root>
        <mxCell id="0" />
        <mxCell id="1" parent="0" />
      </root>
    </mxGraphModel>
  </diagram>
</mxfile>
